# xmcd
#
# Track frame offsets: 
#        183
#        15525
#        29318
#        41408
#        51280
#        71085
#        85470
#        109078
#        120870
#        128493
#
# Disc length: 1935 seconds
#
# Revision: 3
# Processed by: cddbd v1.5.2PL0 Copyright (c) Steve Scherf et al.
# Submitted via: ExactAudioCopy v0.95a4
#
DISCID=79078d0a
DTITLE=Roosevelt Sykes - The Honeydripper's Duke's Mixture
DYEAR=1900
DGENRE=blues
TTITLE0=Goin' Down Slow
TTITLE1=Ice Cream Freezer
TTITLE2=Lost My Boogie
TTITLE3=Sweet Georgia Brown
TTITLE4=St. James Infirmary
TTITLE5=Honeysuckle Rose
TTITLE6=Basin Street Blues
TTITLE7=Rock Me
TTITLE8=A Woman Is In Demand
TTITLE9=Dirty Mother For You
EXTD=
EXTT0=
EXTT1=
EXTT2=
EXTT3=
EXTT4=
EXTT5=
EXTT6=
EXTT7=
EXTT8=
EXTT9=
PLAYORDER=
